Coordinates
version=1
nRows=7
nColumns=46
inDegrees=yes

Units are S.I. units (second, meters, Newtons, ...)
Angles are in degrees.

endheader
time	pelvis_tilt	pelvis_list	pelvis_rotation	pelvis_tx	pelvis_ty	pelvis_tz	bb_angle	bb_tx	bb_ty	bb_tz	hip_flexion_r	hip_adduction_r	hip_rotation_r	knee_angle_r	knee_angle_r_beta	ankle_angle_r	subtalar_angle_r	mtp_angle_r	crank_angle_r	hip_flexion_l	hip_adduction_l	hip_rotation_l	knee_angle_l	knee_angle_l_beta	ankle_angle_l	subtalar_angle_l	mtp_angle_l	crank_angle_l	lumbar_extension	lumbar_bending	lumbar_rotation	arm_flex_r	arm_add_r	arm_rot_r	elbow_flex_r	pro_sup_r	wrist_flex_r	wrist_dev_r	arm_flex_l	arm_add_l	arm_rot_l	elbow_flex_l	pro_sup_l	wrist_flex_l	wrist_dev_l
      2.50500000	    -22.24354578	     -3.41228670	     -6.19112965	      0.17518325	      1.05133944	     -0.20508006	      0.00000000	      0.50000000	      0.00000000	      0.25000000	     83.75682670	      3.23976972	      3.29229421	    113.94843418	      1.98877535	     -1.34557873	     -6.91219687	      0.00000000	      0.00000000	     47.98340500	    -11.33455840	     -2.75746307	     34.13877424	      0.59583401	     -7.60338719	     -8.42658996	      0.00000000	      0.00000000	    -54.61623916	     -2.38182628	      2.51019761	     76.21421904	    -11.45734037	     29.21847291	     68.28171703	     47.24824434	      0.00000000	      0.00000000	     65.17060091	    -12.76110884	     11.87272741	     81.66800255	     47.54174689	      0.00000000	      0.00000000
      2.51000000	    -22.13068615	     -3.50234242	     -6.40544711	      0.17476190	      1.05138940	     -0.20551858	      0.00000000	      0.50000000	      0.00000000	      0.25000000	     84.33046432	      3.30759603	      3.29121296	    114.39082344	      1.99649650	     -0.39899847	     -6.05072874	      0.00000000	      0.00000000	     47.34623552	    -11.53316828	     -3.13572276	     33.73613664	      0.58880666	     -8.30405562	     -8.40478072	      0.00000000	      0.00000000	    -54.74442625	     -2.33498231	      2.68354732	     76.55588828	    -11.60747923	     29.73113769	     68.11529656	     47.32776077	      0.00000000	      0.00000000	     65.25044037	    -12.80411138	     11.76184963	     81.48774503	     47.55937934	      0.00000000	      0.00000000
      2.51500000	    -22.13292240	     -3.63776570	     -6.54527153	      0.17419338	      1.05115675	     -0.20610058	      0.00000000	      0.50000000	      0.00000000	      0.25000000	     85.02510192	      3.33683420	      3.12308059	    114.76718072	      2.00306518	      0.17513526	     -6.16480154	      0.00000000	      0.00000000	     46.94091884	    -11.71281326	     -3.34585071	     33.49015897	      0.58451354	     -8.82674262	     -8.21302644	      0.00000000	      0.00000000	    -54.77613169	     -2.15087183	      2.92581861	     76.79806112	    -11.60521959	     29.82015052	     68.11816207	     47.34915839	      0.00000000	      0.00000000	     65.34174606	    -12.87375859	     11.69551986	     81.45290904	     47.56125757	      0.00000000	      0.00000000
      2.52000000	    -22.05463682	     -3.78302173	     -6.67057432	      0.17359824	      1.05084866	     -0.20671180	      0.00000000	      0.50000000	      0.00000000	      0.25000000	     85.70438408	      3.27017483	      2.90711205	    115.15605115	      2.00985225	      0.39184696	     -6.14847252	      0.00000000	      0.00000000	     46.49914023	    -11.87526204	     -3.48508270	     33.39990513	      0.58293831	     -9.06883345	     -8.15029131	      0.00000000	      0.00000000	    -54.85267560	     -2.02322422	      3.06456246	     76.87787264	    -11.59959230	     29.85605142	     68.11745464	     47.35591573	      0.00000000	      0.00000000	     65.39052502	    -12.91651230	     11.66093218	     81.44183768	     47.55994291	      0.00000000	      0.00000000
      2.52500000	    -22.08574200	     -3.90525971	     -6.93526039	      0.17295207	      1.05069924	     -0.20711164	      0.00000000	      0.50000000	      0.00000000	      0.25000000	     86.37896979	      3.42841590	      2.79578154	    115.40262048	      2.01415569	      1.39880333	     -5.92888435	      0.00000000	      0.00000000	     46.11602034	    -12.14287887	     -3.83117470	     33.16691252	      0.57887183	     -9.91705770	     -8.06167147	      0.00000000	      0.00000000	    -54.89290430	     -1.90805013	      3.38467736	     77.30359973	    -11.64374060	     30.06377323	     68.14072748	     47.39780946	      0.00000000	      0.00000000	     65.53229804	    -13.05291499	     11.52808377	     81.34445752	     47.55235445	      0.00000000	      0.00000000
      2.53000000	    -22.06319694	     -3.99414603	     -7.22254918	      0.17242058	      1.05044379	     -0.20778168	      0.00000000	      0.50000000	      0.00000000	      0.25000000	     87.03552331	      3.50601156	      2.70508903	    115.64375873	      2.01836435	      2.09002059	     -5.60311078	      0.00000000	      0.00000000	     45.71459639	    -12.35766886	     -4.16574189	     33.11797685	      0.57801774	    -10.40059427	     -8.20920576	      0.00000000	      0.00000000	    -54.95672599	     -1.84473067	      3.65307139	     77.61886714	    -11.72718246	     30.34600819	     68.12607332	     47.44528471	      0.00000000	      0.00000000	     65.60449800	    -13.10389159	     11.41182042	     81.26611388	     47.55367137	      0.00000000	      0.00000000
      2.53500000	    -21.97755033	     -4.05182648	     -7.34769964	      0.17163908	      1.05002586	     -0.20846961	      0.00000000	      0.50000000	      0.00000000	      0.25000000	     87.70228019	      3.40855627	      2.57627837	    115.90614929	      2.02294393	      2.34894766	     -5.58796865	      0.00000000	      0.00000000	     45.33298812	    -12.42328726	     -4.28460398	     33.16201082	      0.57878628	    -10.59323200	     -8.21100111	      0.00000000	      0.00000000	    -55.02423718	     -1.73896798	      3.81742866	     77.70693294	    -11.72474036	     30.40721217	     68.12566707	     47.45543340	      0.00000000	      0.00000000	     65.66527301	    -13.13561823	     11.36473075	     81.26250042	     47.55337301	      0.00000000	      0.00000000
